<?xml version="1.0" encoding="UTF-8"?> <svg xmlns="http://www.w3.org/2000/svg" xmlns:xlink="http://www.w3.org/1999/xlink" width="102.736" height="57.789" viewBox="0 0 102.736 57.789"><defs><clipPath id="clip-path"><path id="path3446" d="M14.4-358.358c0,14.327,22.079,25.941,49.313,25.941h0c27.235,0,49.313-11.614,49.313-25.941h0c0-14.326-22.079-25.941-49.314-25.941h0c-27.235,0-49.313,11.614-49.313,25.941" transform="translate(-14.4 384.299)"></path></clipPath><radialGradient id="radial-gradient" cx="74.262" cy="-286.12" r="123.101" gradientTransform="translate(28.372 46.533) scale(0.526 0.526)" gradientUnits="userSpaceOnUse"><stop offset="0" stop-color="#aeb2d5"></stop><stop offset="0.3" stop-color="#aeb2d5"></stop><stop offset="0.75" stop-color="#484c89"></stop><stop offset="1" stop-color="#484c89"></stop></radialGradient><clipPath id="clip-path-2"><path id="path3470" d="M0-405H102.736v57.789H0Z" transform="translate(0 405)"></path></clipPath></defs><g id="g3438" transform="translate(0 405)"><g id="g3440" transform="translate(2.055 -402.046)"><g id="g3442" clip-path="url(#clip-path)"><g id="g3448"><g id="g3450"><path id="path3462" d="M14.4-358.358c0,14.327,22.079,25.941,49.313,25.941h0c27.235,0,49.313-11.614,49.313-25.941h0c0-14.326-22.079-25.941-49.314-25.941h0c-27.235,0-49.313,11.614-49.313,25.941" transform="translate(-14.4 384.299)" fill="url(#radial-gradient)"></path></g></g></g></g><g id="g3464" transform="translate(0 -405)"><g id="g3466" clip-path="url(#clip-path-2)"><g id="g3472" transform="translate(3.981 4.88)"><path id="path3474" d="M-284.713-288.573c26.171,0,47.387-10.752,47.387-24.015S-258.542-336.6-284.713-336.6-332.1-325.851-332.1-312.588s21.216,24.015,47.387,24.015" transform="translate(332.1 336.603)" fill="#777bb3"></path></g></g></g><g id="g3476" transform="translate(0 -405)"><g id="g3478" clip-path="url(#clip-path-2)"><g id="g3484" transform="translate(17.064 16.89)"><path id="path3486" d="M-70.795-90.018A7.865,7.865,0,0,0-66.02-91.2a6.381,6.381,0,0,0,2.064-3.987c.339-1.749.21-2.97-.384-3.629s-1.921-1.015-3.9-1.015h-3.439l-1.907,9.81ZM-82.043-77.934a.534.534,0,0,1-.413-.195.535.535,0,0,1-.112-.442l5.053-26A.535.535,0,0,1-76.99-105H-66.1c3.422,0,5.97.929,7.571,2.762s2.107,4.418,1.477,7.655a12.219,12.219,0,0,1-1.309,3.64,12.188,12.188,0,0,1-2.41,3.02,10.572,10.572,0,0,1-3.966,2.376,17.965,17.965,0,0,1-5.449.7H-74.6l-1.259,6.478a.535.535,0,0,1-.525.433Z" transform="translate(82.578 105)"></path></g><g id="g3488" transform="translate(16.529 16.354)"><path id="path3490" d="M-71.319-37.507h3c2.394,0,3.225.525,3.508.838.469.52.557,1.616.256,3.169a5.883,5.883,0,0,1-1.865,3.664,7.377,7.377,0,0,1-4.449,1.068h-2.146Zm5.142-6.243h-10.89a1.07,1.07,0,0,0-1.05.866l-5.053,26a1.07,1.07,0,0,0,.225.885,1.07,1.07,0,0,0,.826.389h5.663a1.07,1.07,0,0,0,1.051-.866l1.175-6.046h3.968a18.488,18.488,0,0,0,5.615-.727,11.106,11.106,0,0,0,4.165-2.494A12.729,12.729,0,0,0-57.971-28.9,12.753,12.753,0,0,0-56.6-32.7c.663-3.407.124-6.136-1.6-8.109-1.707-1.954-4.39-2.945-7.974-2.945M-74.316-27.7h3.445a8.317,8.317,0,0,0,5.1-1.29A6.852,6.852,0,0,0-63.507-33.3q.562-2.9-.512-4.09t-4.3-1.191H-72.2L-74.316-27.7m8.139-14.982q4.914,0,7.168,2.579t1.355,7.2A11.64,11.64,0,0,1-58.9-29.418a11.61,11.61,0,0,1-2.3,2.887,10,10,0,0,1-3.769,2.261,17.359,17.359,0,0,1-5.283.675h-4.851l-1.343,6.912h-5.663l5.053-26h10.89" transform="translate(83.189 43.75)" fill="#fff"></path></g><g id="g3492" transform="translate(41.172 9.978)"><path id="path3494" d="M-86.535-162.621a.534.534,0,0,1-.413-.195.534.534,0,0,1-.113-.442l2.235-11.5c.213-1.094.16-1.879-.147-2.211-.188-.2-.754-.543-2.427-.543h-4.049l-2.81,14.46a.535.535,0,0,1-.525.433H-100.4a.535.535,0,0,1-.413-.195.535.535,0,0,1-.112-.442l5.053-26a.535.535,0,0,1,.525-.433h5.618a.535.535,0,0,1,.413.195.535.535,0,0,1,.112.443l-1.219,6.274h4.356c3.318,0,5.569.585,6.879,1.789,1.336,1.228,1.753,3.191,1.239,5.836l-2.351,12.1a.535.535,0,0,1-.525.433Z" transform="translate(100.938 189.688)"></path></g><g id="g3496" transform="translate(40.637 9.443)"><path id="path3498" d="M-70.544,0h-5.618a1.07,1.07,0,0,0-1.051.866l-5.053,26a1.07,1.07,0,0,0,.225.885,1.07,1.07,0,0,0,.826.389H-75.6a1.07,1.07,0,0,0,1.051-.866l2.726-14.027h3.608c1.67,0,2.02.357,2.035.372.1.109.235.614.015,1.745l-2.235,11.5a1.07,1.07,0,0,0,.225.885,1.07,1.07,0,0,0,.826.389h5.708a1.07,1.07,0,0,0,1.051-.866l2.351-12.1c.552-2.84.08-4.97-1.4-6.332-1.414-1.3-3.783-1.93-7.241-1.93h-3.707l1.1-5.637A1.07,1.07,0,0,0-69.718.39,1.07,1.07,0,0,0-70.544,0m0,1.07-1.343,6.912h5.005q4.724,0,6.517,1.648t1.076,5.34l-2.351,12.1h-5.708l2.235-11.5q.382-1.963-.281-2.677t-2.819-.714H-72.7L-75.6,27.066h-5.618l5.053-26h5.618" transform="translate(82.285)" fill="#fff"></path></g><g id="g3500" transform="translate(61.265 16.89)"><path id="path3502" d="M-70.795-90.018A7.865,7.865,0,0,0-66.02-91.2a6.381,6.381,0,0,0,2.064-3.987c.339-1.749.21-2.97-.384-3.629s-1.921-1.015-3.9-1.015h-3.439l-1.907,9.81ZM-82.042-77.934a.534.534,0,0,1-.413-.195.535.535,0,0,1-.113-.442l5.053-26A.535.535,0,0,1-76.99-105H-66.1c3.423,0,5.97.929,7.571,2.762s2.107,4.418,1.477,7.655a12.229,12.229,0,0,1-1.31,3.64,12.188,12.188,0,0,1-2.41,3.02,10.572,10.572,0,0,1-3.966,2.376,17.965,17.965,0,0,1-5.449.7H-74.6l-1.259,6.478a.535.535,0,0,1-.525.433Z" transform="translate(82.578 105)"></path></g><g id="g3504" transform="translate(60.73 16.354)"><path id="path3506" d="M-71.318-37.507h3c2.394,0,3.225.525,3.508.838.469.52.557,1.616.256,3.169a5.884,5.884,0,0,1-1.865,3.665,7.377,7.377,0,0,1-4.449,1.068h-2.146Zm5.142-6.243h-10.89a1.07,1.07,0,0,0-1.05.866l-5.053,26a1.07,1.07,0,0,0,.225.885,1.07,1.07,0,0,0,.826.389h5.663a1.07,1.07,0,0,0,1.051-.866l1.175-6.046h3.968a18.488,18.488,0,0,0,5.615-.727,11.106,11.106,0,0,0,4.166-2.495A12.722,12.722,0,0,0-57.97-28.9,12.753,12.753,0,0,0-56.6-32.7c.663-3.408.124-6.136-1.6-8.11-1.707-1.954-4.39-2.945-7.974-2.945M-74.315-27.7h3.445a8.317,8.317,0,0,0,5.1-1.29A6.852,6.852,0,0,0-63.506-33.3q.562-2.9-.512-4.09t-4.3-1.191H-72.2L-74.315-27.7m8.139-14.982q4.914,0,7.168,2.579t1.355,7.2A11.64,11.64,0,0,1-58.9-29.418a11.61,11.61,0,0,1-2.3,2.887,10,10,0,0,1-3.769,2.261,17.359,17.359,0,0,1-5.283.675h-4.851l-1.343,6.912h-5.663l5.053-26h10.89" transform="translate(83.188 43.75)" fill="#fff"></path></g></g></g></g></svg> 