<?xml version="1.0" encoding="UTF-8"?> <svg xmlns="http://www.w3.org/2000/svg" id="javascript-736400" width="56.403" height="56.403" viewBox="0 0 56.403 56.403"><rect id="Rectángulo_14" data-name="Rectángulo 14" width="56.403" height="56.403" fill="#f7df1e"></rect><path id="Trazado_22" data-name="Trazado 22" d="M188.918,304.36a5.773,5.773,0,0,0,5.228,3.219c2.2,0,3.6-1.1,3.6-2.614,0-1.817-1.441-2.461-3.859-3.518l-1.325-.569c-3.825-1.629-6.365-3.671-6.365-7.986,0-3.975,3.029-7,7.762-7a7.834,7.834,0,0,1,7.538,4.244l-4.127,2.65c-.909-1.629-1.889-2.271-3.411-2.271a2.306,2.306,0,0,0-2.536,2.271c0,1.59.985,2.234,3.259,3.219l1.325.568c4.5,1.931,7.046,3.9,7.046,8.326,0,4.772-3.749,7.386-8.783,7.386-4.922,0-8.1-2.346-9.658-5.42Zm-18.723.459c.833,1.477,1.59,2.726,3.411,2.726,1.741,0,2.84-.681,2.84-3.33V286.193h5.3v18.094c0,5.488-3.218,7.986-7.914,7.986a8.228,8.228,0,0,1-7.951-4.841Z" transform="translate(-151.029 -260.295)"></path></svg> 